<svg xmlns="http://www.w3.org/2000/svg" viewBox="0 0 900 520" role="img" aria-label="Volantes">
  <rect width="900" height="520" fill="#f8f6fb"/>
  <g transform="translate(204 80) rotate(-9 170 180)">
    <rect width="340" height="360" rx="18" fill="#fff" stroke="#dfe3ec" stroke-width="6"/>
    <rect width="340" height="84" rx="18" fill="#ec1c62"/>
    <rect x="36" y="122" width="232" height="24" rx="12" fill="#292929"/>
    <rect x="36" y="172" width="270" height="18" rx="9" fill="#a0a8b5"/>
    <rect x="36" y="210" width="236" height="18" rx="9" fill="#a0a8b5"/>
    <rect x="36" y="274" width="140" height="48" rx="12" fill="#19ad45"/>
  </g>
  <g transform="translate(370 74) rotate(8 170 180)">
    <rect width="340" height="360" rx="18" fill="#fff" stroke="#dfe3ec" stroke-width="6"/>
    <rect width="340" height="84" rx="18" fill="#f8aa00"/>
    <rect x="36" y="122" width="232" height="24" rx="12" fill="#292929"/>
    <rect x="36" y="172" width="270" height="18" rx="9" fill="#a0a8b5"/>
    <rect x="36" y="210" width="236" height="18" rx="9" fill="#a0a8b5"/>
    <rect x="36" y="274" width="140" height="48" rx="12" fill="#5a2d83"/>
  </g>
  <text x="450" y="478" text-anchor="middle" font-family="Arial, sans-serif" font-size="44" font-weight="900" fill="#292929">VOLANTES</text>
</svg>
